HIERARCHY
ROOT Hips
{
	OFFSET 0.00000 0.00000 0.00000
	CHANNELS 6 Xposition Yposition Zposition Zrotation Yrotation Xrotation 
	JOINT LHipJoint
	{
		OFFSET 0 0 0
		CHANNELS 3 Zrotation Yrotation Xrotation
		JOINT LeftHip
		{
			OFFSET 3.13874 -1.57224 1.49786
			CHANNELS 3 Zrotation Yrotation Xrotation
			JOINT LeftKnee
			{
				OFFSET 2.10955 -5.79594 0.00000
				CHANNELS 3 Zrotation Yrotation Xrotation
				JOINT LeftAnkle
				{
					OFFSET 2.41843 -6.64458 0.00000
					CHANNELS 3 Zrotation Yrotation Xrotation
					JOINT LeftToe
					{
						OFFSET 0.04713 -0.12948 1.66229
						CHANNELS 3 Zrotation Yrotation Xrotation
						End Site
						{
							OFFSET 0.00000 -0.00000 0.85167
						}
					}
				}
			}
		}
	}
	JOINT RHipJoint
	{
		OFFSET 0 0 0
		CHANNELS 3 Zrotation Yrotation Xrotation
		JOINT RightHip
		{
			OFFSET -3.13988 -1.57224 1.49786
			CHANNELS 3 Zrotation Yrotation Xrotation
			JOINT RightKnee
			{
				OFFSET -2.15006 -5.90725 0.00000
				CHANNELS 3 Zrotation Yrotation Xrotation
				JOINT RightAnkle
				{
					OFFSET -2.34496 -6.44273 0.00000
					CHANNELS 3 Zrotation Yrotation Xrotation
					JOINT RightToe
					{
						OFFSET -0.08699 -0.23900 1.55223
						CHANNELS 3 Zrotation Yrotation Xrotation
						End Site
						{
							OFFSET -0.00000 -0.00000 0.80281
						}
					}
				}
			}
		}
	}
	JOINT lowerback
	{
		OFFSET 0 0 0
		CHANNELS 3 Zrotation Yrotation Xrotation
		JOINT Chest
		{
			OFFSET 0.01292 1.96517 -0.16495
			CHANNELS 3 Zrotation Yrotation Xrotation
			JOINT Chest2
			{
				OFFSET 0.02122 1.88666 0.19706
				CHANNELS 3 Zrotation Yrotation Xrotation
				JOINT lowerneck
				{
					OFFSET 0 0 0
					CHANNELS 3 Zrotation Yrotation Xrotation
					JOINT Neck
					{
						OFFSET -0.01683 1.81591 0.07903
						CHANNELS 3 Zrotation Yrotation Xrotation
						JOINT Head
						{
							OFFSET 0.00815 1.74013 -0.47700
							CHANNELS 3 Zrotation Yrotation Xrotation
							End Site
							{
								OFFSET -0.00204 1.83225 -0.16933
							}
						}
					}
				}
				JOINT LeftCollar
				{
					OFFSET 0 0 0
					CHANNELS 3 Zrotation Yrotation Xrotation
					JOINT LeftShoulder
					{
						OFFSET 3.38482 1.41533 0.19802
CHANNELS 3 Zrotation Xrotation Yrotation
						JOINT LeftElbow
						{
OFFSET 0 -4.327120 0.000000
CHANNELS 3 Zrotation Xrotation Yrotation
							JOINT LeftWrist
							{
OFFSET 0 -3.285870 -0.000000
CHANNELS 3 Zrotation Xrotation Yrotation
								JOINT lhand
								{
									OFFSET 0 0 0
CHANNELS 3 Zrotation Xrotation Yrotation
									JOINT LFingers
									{
OFFSET 0 -0.433160 -0.000000
CHANNELS 3 Zrotation Xrotation Yrotation
										End Site
										{
OFFSET 0 -0.349220 -0.000000
										}
									}
								}
								JOINT LThumb
								{
OFFSET 0 0.000000 0.000000
CHANNELS 3 Zrotation Xrotation Yrotation
									End Site
									{
OFFSET 0 -0.354560 0.354560
									}
								}
							}
						}
					}
				}
				JOINT RightCollar
				{
					OFFSET 0 0 0
					CHANNELS 3 Zrotation Yrotation Xrotation
					JOINT RightShoulder
					{
						OFFSET -3.09725 1.62858 -0.14144
CHANNELS 3 Zrotation Xrotation Yrotation
						JOINT RightElbow
						{
OFFSET 0 -4.291040 0.000000
CHANNELS 3 Zrotation Xrotation Yrotation
							JOINT RightWrist
							{
OFFSET 0 -3.227200 -0.000000
CHANNELS 3 Zrotation Xrotation Yrotation
								JOINT rhand
								{
									OFFSET 0 0 0
CHANNELS 3 Zrotation Xrotation Yrotation
									JOINT RFingers
									{
OFFSET 0 -0.543620 -0.000000
CHANNELS 3 Zrotation Xrotation Yrotation
										End Site
										{
OFFSET 0 -0.438280 -0.000000
										}
									}
								}
								JOINT RThumb
								{
OFFSET 0 0.000000 0.000000
CHANNELS 3 Zrotation Xrotation Yrotation
									End Site
									{
OFFSET 0 -0.444970 0.444970
									}
								}
							}
						}
					}
				}
			}
		}
	}
}
MOTION
Frames: 11
Frame Time: .0083333
33.8484 15.5248 4.5045 -134.3370 -81.9320 143.4870 0.0000 0.0000 0.0000 -18.0339 -7.5848 -36.1568 8.6172 16.5549 54.7564 1.2242 -13.2831 -20.5383 2.4672 -9.7780 -28.2608 0.0000 0.0000 0.0000 38.8860 10.8557 3.8382 -0.0431 -1.3403 3.6857 -1.5479 -2.7550 -24.6333 -0.0680 1.6819 -4.6274 1.4841 0.6459 8.2731 3.4552 1.2906 -7.4656 2.7247 0.6033 -12.8557 0.5584 1.0603 -18.4021 -2.2815 0.5914 40.7332 -1.2633 -0.6147 18.4500 -0.0000 0.0000 0.0000 3.6164 21.1246 -10.2654 20.1580 -30.8323 5.6121 29.6691 24.5013 -31.586 0.0 0.0 0.0 -7.1250 0.0 0.0 -2.6520 65.246 1.2983 -0.0000 0.0000 0.0000 -22.9739 13.8422 44.9073 -19.1390 -29.591 -5.0993 -16.455 -5.0219 15.2124 0.0 0.0 0.0 7.1250 0.0 -0.0 10.4336 45.5471 -0.1424
33.5911 15.5073 4.4924 -131.8210 -81.8649 140.9200 0.0000 0.0000 0.0000 -16.8082 -9.6055 -37.8259 7.5056 15.7433 50.7615 1.3942 -13.5291 -21.7960 2.7867 -10.3415 -30.0900 0.0000 0.0000 0.0000 39.5368 10.7128 5.6702 -0.0212 -0.9397 2.5828 -1.6241 -3.8512 -25.7184 -0.2822 3.4168 -9.4413 1.7852 0.6794 8.5222 3.5787 1.4008 -7.4502 2.6710 0.6346 -12.9950 0.2583 0.9576 -18.3112 -2.2500 0.5343 40.7300 -1.2051 -0.6806 18.4202 -0.0000 -0.0000 0.0000 3.4626 21.2626 -9.8315 20.0220 -30.6688 5.5425 29.4094 25.2265 -32.0521 0.0 0.0 0.0 -7.1250 0.0 0.0 -3.2661 65.6591 1.6304 -0.0000 -0.0000 0.0000 -23.4558 13.4466 46.0521 -19.6677 -30.2399 -5.363 -17.11 -4.5695 17.4179 0.0 0.0 0.0 7.1250 0.0 -0.0 10.4504 47.8735 -0.7486
33.3298 15.4817 4.4817 -129.1010 -81.6254 138.1440 0.0000 0.0000 0.0000 -15.2764 -11.4854 -38.9882 6.2778 14.6922 46.0866 1.6478 -13.2370 -23.4469 3.0166 -10.7219 -31.3477 0.0000 0.0000 0.0000 40.3613 10.6695 7.3781 -0.0111 -0.6815 1.8727 -1.6776 -4.4870 -26.4254 -0.3245 3.6613 -10.1256 2.2359 0.7196 8.8255 3.7319 1.5483 -7.4556 2.5593 0.6698 -13.1911 0.0454 0.9376 -18.2561 -2.2076 0.5563 40.8431 -1.1462 -0.7039 18.4724 0.0000 -0.0000 0.0000 3.336 21.3797 -9.2215 19.7980 -30.3982 5.4288 28.9994 25.6417 -31.8978 0.0 0.0 0.0 -7.1250 0.0 0.0 -3.7068 65.38 1.8267 0.0000 -0.0000 0.0000 -23.902 12.9574 47.1574 -20.0956 -30.7574 -5.5802 -17.3478 -5.2906 16.82 0.0 0.0 0.0 7.1250 0.0 -0.0 10.0523 47.2985 -0.5757
33.0630 15.4496 4.4755 -127.0240 -81.1290 136.1050 0.0000 0.0000 0.0000 -13.3904 -13.1255 -39.7942 4.9764 13.3571 40.7204 1.7983 -12.5344 -24.3184 3.3177 -11.1924 -32.9317 0.0000 0.0000 0.0000 41.2723 10.6343 8.8527 -0.0064 -0.5186 1.4249 -1.7305 -4.7943 -26.9584 -0.4011 4.0663 -11.2632 2.8647 0.8134 8.9925 3.8912 1.7888 -7.4576 2.3349 0.7304 -13.2953 -0.0866 0.9352 -18.2242 -2.2349 0.6082 40.9292 -1.1280 -0.7115 18.5165 -0.0000 -0.0000 0.0000 3.2306 21.4614 -8.3889 19.5115 -30.0493 5.2846 27.9101 25.3992 -30.8261 0.0 0.0 0.0 -7.1250 0.0 0.0 -4.4584 63.9573 2.0503 -0.0000 -0.0000 0.0000 -24.2643 12.3996 48.1997 -20.4976 -31.2372 -5.7872 -17.4003 -6.5488 15.9023 0.0 0.0 0.0 7.1250 0.0 -0.0 9.7489 46.3695 -0.3326
32.7924 15.4159 4.4742 -125.7380 -80.6783 134.9340 0.0000 0.0000 0.0000 -11.3764 -14.9316 -40.1175 3.6664 11.7027 34.6881 1.9008 -11.2763 -24.8403 3.5135 -11.4833 -33.9276 0.0000 0.0000 0.0000 42.0084 10.5142 10.2741 -0.0022 -0.2997 0.8233 -1.7702 -5.1621 -27.4285 -0.5494 4.7483 -13.1920 3.3319 0.9475 9.0098 4.0630 2.0530 -7.4716 2.2108 0.8174 -13.3235 -0.3206 0.8814 -18.1051 -2.2117 0.5962 40.9703 -1.0782 -0.7527 18.5075 0.0000 0.0000 0.0000 3.0017 21.6424 -7.9453 19.3219 -29.8167 5.1899 27.015 23.7074 -28.4721 0.0 0.0 0.0 -7.1250 0.0 0.0 -4.3078 61.2596 1.7075 0.0000 0.0000 0.0000 -24.6445 11.8539 48.9996 -20.9272 -31.7433 -6.0116 -17.7284 -6.9643 16.2896 0.0 0.0 0.0 7.1250 0.0 -0.0 9.5495 46.8085 -0.43
32.5131 15.3840 4.4774 -124.5000 -80.2800 133.7520 0.0000 0.0000 0.0000 -9.0107 -17.3913 -39.6244 2.4318 9.7129 28.0519 2.0751 -9.5338 -25.8646 3.5710 -11.5665 -34.2153 0.0000 0.0000 0.0000 42.6584 10.2900 11.7813 -0.0000 -0.0441 0.1212 -1.5497 -6.4407 -26.6074 -0.7415 5.5009 -15.3428 3.7415 1.0595 9.0983 4.2369 2.2844 -7.4810 2.1280 0.8942 -13.3903 -0.5383 0.8537 -18.0960 -2.1807 0.6200 41.0473 -1.0221 -0.7758 18.5510 -0.0000 -0.0000 0.0000 2.7538 22.0177 -8.1249 19.3155 -29.8088 5.1867 25.971 20.9863 -26.917 0.0 0.0 0.0 -7.1250 0.0 0.0 -4.8028 59.3704 1.6882 -0.0000 -0.0000 0.0000 -25.0339 11.2654 49.5485 -21.3035 -32.1809 -6.2108 -18.0824 -6.476 16.6793 0.0 0.0 0.0 7.1250 0.0 -0.0 9.3261 47.2554 -0.5234
32.2209 15.3503 4.4841 -123.3350 -79.7759 132.6310 0.0000 0.0000 0.0000 -6.0579 -20.4916 -38.6550 1.4477 7.6060 21.5237 2.3305 -6.9695 -27.5472 3.2802 -11.1354 -32.7380 0.0000 0.0000 0.0000 43.3540 10.0884 13.3370 -0.0010 0.2038 -0.5600 -1.5861 -7.6814 -27.6439 -0.8030 5.7193 -15.9720 4.1974 1.1898 9.1438 4.4447 2.5457 -7.4608 2.0503 0.9826 -13.3948 -0.7328 0.8060 -18.3223 -2.1784 0.6212 41.2278 -0.9936 -0.8098 18.7231 -0.0000 -0.0000 0.0000 2.5016 22.3687 -7.7654 19.4016 -29.9146 5.2296 29.3454 24.2267 -29.4224 0.0 0.0 0.0 -7.1250 0.0 0.0 -1.9419 62.8729 0.843 -0.0000 -0.0000 0.0000 -25.3879 10.5822 49.9 -21.6380 -32.5654 -6.3899 -18.1228 -5.4962 17.3978 0.0 0.0 0.0 7.1250 0.0 -0.0 9.4912 47.9968 -0.7077
31.9205 15.3067 4.4927 -122.5160 -79.2646 132.0460 0.0000 0.0000 0.0000 -2.6039 -23.9560 -38.0377 0.8264 5.7998 16.2046 2.7150 -6.6048 -29.8753 3.3990 -11.3145 -33.3480 0.0000 0.0000 0.0000 44.0062 9.9955 14.7717 -0.0052 0.4662 -1.2809 -1.3853 -8.8047 -26.9868 -0.8866 6.0022 -16.7907 4.4275 1.3889 8.8310 4.7188 2.8400 -7.4375 2.1700 1.1132 -13.1840 -0.9052 0.6700 -18.5485 -2.2570 0.5164 41.3426 -1.0273 -0.8905 18.8557 0.0000 -0.0000 0.0000 1.9553 23.349 -13.8433 20.8401 -31.6412 5.9658 50.6062 25.29 -30.9551 0.0 0.0 0.0 -7.1250 0.0 0.0 32.6375 70.9411 -20.8822 0.0000 -0.0000 0.0000 -25.7457 9.8333 50.1846 -21.9401 -32.9093 -6.5533 -18.0313 -5.0596 18.1714 0.0 0.0 0.0 7.1250 0.0 -0.0 9.8082 48.7738 -0.9211
31.6138 15.2567 4.5019 -122.1410 -78.7494 132.0280 0.0000 0.0000 0.0000 1.7559 -28.0564 -37.8138 0.4152 4.1361 11.4599 2.0019 -22.5626 -28.0134 0.7381 -5.4884 -15.3069 0.0000 0.0000 0.0000 44.5461 9.8593 15.9011 -0.0092 0.6189 -1.7007 -1.3729 -8.7082 -26.8276 -0.7756 5.6232 -15.6948 4.7066 1.5619 8.5033 4.9203 3.0987 -7.5411 2.1953 1.2147 -13.1061 -1.0491 0.6208 -18.5880 -2.2786 0.5093 41.3707 -1.0145 -0.9198 18.8843 0.0000 -0.0000 0.0000 1.7126 23.76 -13.6758 21.1833 -32.0417 6.1469 50.0328 27.7192 -34.6155 0.0 0.0 0.0 -7.1250 0.0 0.0 34.3624 74.7689 -24.7908 0.0000 -0.0000 0.0000 -25.9208 9.2154 50.5943 -22.1861 -33.1868 -6.6874 -18.169 -5.1291 18.2485 0.0 0.0 0.0 7.1250 0.0 -0.0 9.7007 48.8732 -0.9347
31.2950 15.2041 4.5130 -122.2340 -78.2046 132.4180 0.0000 0.0000 0.0000 5.4482 -31.2234 -37.9742 0.2555 3.2524 8.9824 4.1111 -13.7000 -36.8468 2.1372 -9.1461 -26.2535 0.0000 0.0000 0.0000 44.9251 9.5290 16.8124 -0.0089 0.6077 -1.6699 -1.3873 -8.1275 -26.5234 -0.6649 5.2148 -14.5224 5.0746 1.7055 8.2588 5.0502 3.3309 -7.6929 2.0991 1.2892 -13.1261 -1.1605 0.6600 -18.5287 -2.2378 0.5925 41.4075 -0.9589 -0.9021 18.8912 0.0000 -0.0000 0.0000 1.5581 24.3269 -13.0916 21.3338 -32.2159 6.2269 48.6532 29.5504 -37.8746 0.0 0.0 0.0 -7.1250 0.0 0.0 33.4359 77.851 -26.1373 0.0000 -0.0000 0.0000 -25.933 8.7101 50.9198 -22.4420 -33.4729 -6.828 -18.1746 -5.0299 18.514 0.0 0.0 0.0 7.1250 0.0 -0.0 9.7774 49.145 -1.0082
30.9624 15.1500 4.5293 -122.4980 -77.7422 132.9200 0.0000 0.0000 0.0000 7.7999 -33.2526 -38.1301 0.1917 2.8195 7.7767 5.0775 -11.4139 -41.1963 2.7527 -10.2835 -29.8997 0.0000 0.0000 0.0000 45.0169 8.8458 17.5508 -0.0065 0.5206 -1.4304 -1.3399 -7.6273 -25.8289 -0.7247 5.4396 -15.1667 5.4672 1.8268 8.0008 5.1172 3.5273 -7.8280 1.9274 1.3421 -13.1098 -1.3009 0.7017 -18.5738 -2.1478 0.6657 41.5527 -0.8813 -0.8900 18.9938 0.0000 -0.0000 0.0000 1.636 24.1386 -6.8402 19.1768 -29.6377 5.118 27.7958 20.7439 -27.7019 0.0 0.0 0.0 -7.1250 0.0 0.0 -3.0374 60.6451 1.159 0.0000 -0.0000 0.0000 -25.8655 8.2568 51.0976 -22.7061 -33.7659 -6.9743 -17.5708 -4.9764 19.0121 0.0 0.0 0.0 7.1250 0.0 -0.0 10.5149 49.5596 -1.1939
